<svg width="10" height="14" viewBox="0 0 10 14" fill="none" xmlns="http://www.w3.org/2000/svg">
<path d="M0 3.21452C0 4.27423 0.773627 5.1543 1.78548 5.32502V8.57168C1.78548 8.66641 1.82311 8.75726 1.8901 8.82424C1.95708 8.89122 2.04793 8.92885 2.14265 8.92885H7.8577C7.95243 8.92885 8.04328 8.89122 8.11026 8.82424C8.17724 8.75726 8.21487 8.66641 8.21487 8.57168V5.32502C9.22637 5.15394 10 4.27423 10 3.21452C10 2.03265 9.03886 1.0715 7.85699 1.0715H7.04872C6.59619 0.424673 5.8472 0 5 0C4.1528 0 3.40346 0.424673 2.95128 1.0715H2.14265C1.57453 1.07217 1.02987 1.29817 0.628173 1.69993C0.226481 2.10169 0.000567173 2.64639 0 3.21452ZM2.49982 7.85806H7.50054V8.21451H2.49982V7.85806ZM2.14301 1.78584H2.60519C2.53566 2.0176 2.50017 2.25822 2.49982 2.50018C2.49982 2.59491 2.53745 2.68575 2.60443 2.75273C2.67142 2.81972 2.76226 2.85735 2.85699 2.85735C2.95172 2.85735 3.04256 2.81972 3.10955 2.75273C3.17653 2.68575 3.21416 2.59491 3.21416 2.50018C3.21416 1.51547 4.01529 0.714337 5 0.714337C5.98471 0.714337 6.78584 1.51547 6.78584 2.50018C6.78584 2.59491 6.82347 2.68575 6.89045 2.75273C6.95744 2.81972 7.04828 2.85735 7.14301 2.85735C7.23774 2.85735 7.32858 2.81972 7.39557 2.75273C7.46255 2.68575 7.50018 2.59491 7.50018 2.50018C7.50018 2.25195 7.46268 2.01264 7.39481 1.78584H7.85699C8.6449 1.78584 9.28566 2.4266 9.28566 3.21452C9.28529 3.59278 9.13503 3.95548 8.86779 4.22319C8.60055 4.4909 8.23811 4.64179 7.85985 4.64283L7.8577 4.64247C7.81071 4.64241 7.76416 4.65165 7.72076 4.66967C7.67735 4.6877 7.63795 4.71414 7.60483 4.74748C7.57149 4.78061 7.54504 4.82001 7.52702 4.86341C7.509 4.90682 7.49975 4.95336 7.49982 5.00036L7.50054 5.00393V7.14372H2.49982V5.00214L2.50018 5.00036C2.50027 4.95336 2.49109 4.90681 2.47316 4.86337C2.45523 4.81993 2.42891 4.78046 2.39569 4.74721C2.36248 4.71397 2.32303 4.6876 2.27961 4.66963C2.23619 4.65166 2.18965 4.64243 2.14265 4.64247L2.14051 4.64283C1.76218 4.64189 1.39966 4.49103 1.13234 4.22331C0.865023 3.9556 0.714714 3.59284 0.714337 3.21452C0.714337 2.4266 1.3551 1.78584 2.14301 1.78584ZM8.92778 10.3579H1.07222C0.977492 10.3579 0.886645 10.3955 0.819663 10.4625C0.752681 10.5295 0.715051 10.6203 0.715051 10.7151C0.715051 10.8098 0.752681 10.9006 0.819663 10.9676C0.886645 11.0346 0.977492 11.0722 1.07222 11.0722H8.92778C9.02251 11.0722 9.11336 11.0346 9.18034 10.9676C9.24732 10.9006 9.28495 10.8098 9.28495 10.7151C9.28495 10.6203 9.24732 10.5295 9.18034 10.4625C9.11336 10.3955 9.02251 10.3579 8.92778 10.3579ZM8.92778 11.4294H1.07222C0.977492 11.4294 0.886645 11.467 0.819663 11.534C0.752681 11.601 0.715051 11.6918 0.715051 11.7866C0.715051 11.8813 0.752681 11.9721 0.819663 12.0391C0.886645 12.1061 0.977492 12.1437 1.07222 12.1437H8.92778C9.02251 12.1437 9.11336 12.1061 9.18034 12.0391C9.24732 11.9721 9.28495 11.8813 9.28495 11.7866C9.28495 11.6918 9.24732 11.601 9.18034 11.534C9.11336 11.467 9.02251 11.4294 8.92778 11.4294ZM7.1423 12.5102H2.8577C2.76298 12.5102 2.67213 12.5478 2.60515 12.6148C2.53817 12.6818 2.50054 12.7726 2.50054 12.8673C2.50054 12.9621 2.53817 13.0529 2.60515 13.1199C2.67213 13.1869 2.76298 13.2245 2.8577 13.2245H7.1423C7.23702 13.2245 7.32787 13.1869 7.39485 13.1199C7.46183 13.0529 7.49946 12.9621 7.49946 12.8673C7.49946 12.7726 7.46183 12.6818 7.39485 12.6148C7.32787 12.5478 7.23702 12.5102 7.1423 12.5102Z" fill="black"/>
</svg>
